<?xml version="1.0" encoding="UTF-8"?>
<svg id="Layer_1" xmlns="http://www.w3.org/2000/svg" version="1.1" viewBox="0 0 110 110">
  <!-- Generator: Adobe Illustrator 29.4.0, SVG Export Plug-In . SVG Version: 2.1.0 Build 152)  -->
  <path d="M96,53.2c-.3-1-.3-2.1,0-3.1l1.2-3.8c.5-1.5.5-3.2,0-4.7l-1.2-3.7c-.3-1-.3-2.1,0-3.1l1.2-3.8c.5-1.5.5-3.2,0-4.7l-1.2-3.8c-.3-1-.3-2.1,0-3.1l.8-2.6c.8-2.4-.6-5-3-5.8l-2.6-.8c-1.5-.5-3.2-.5-4.7,0l-3.8,1.2c-1,.3-2.1.3-3.1,0l-3.7-1.2c-1.5-.5-3.2-.5-4.7,0l-3.8,1.2c-1,.3-2.1.3-3.1,0l-3.7-1.2c-1.5-.5-3.2-.5-4.7,0l-3.8,1.2c-1,.3-2.1.3-3.1,0l-3.8-1.2c-1.5-.5-3.2-.5-4.7,0l-2.6.8c-1.2.4-2.2,1.2-2.7,2.3-.6,1.1-.7,2.3-.3,3.5l.8,2.6c.3,1,.3,2.1,0,3.1l-1.2,3.8c-.5,1.5-.5,3.2,0,4.7l.3.9c-.3,0-.6.1-1,.2l-3.8,1.2c-1,.3-2.1.3-3.1,0l-3.8-1.2c-1.5-.5-3.2-.5-4.7,0l-2.6.8c-2.4.8-3.8,3.4-3,5.8l.8,2.6c.3,1,.3,2.1,0,3.1l-1.2,3.8c-.5,1.5-.5,3.2,0,4.7l1.2,3.8c.3,1,.3,2.1,0,3.1l-1.2,3.8c-.5,1.5-.5,3.2,0,4.7l1.2,3.8c.3,1,.3,2.1,0,3.1l-1.2,3.7c-.5,1.5-.5,3.2,0,4.7l1.2,3.8c.3,1,.3,2.1,0,3.1l-.8,2.5c-.4,1.2-.3,2.4.3,3.6.6,1.1,1.5,1.9,2.7,2.3l2.5.8c1.5.5,3.2.5,4.7,0l3.8-1.2c1-.3,2.1-.3,3.1,0l3.7,1.2c1.5.5,3.2.5,4.7,0l3.8-1.2c1-.3,2.1-.3,3.1,0l3.8,1.2c1.5.5,3.2.5,4.7,0l3.8-1.2c1-.3,2.1-.3,3.1,0l3.8,1.2c.8.2,1.6.4,2.4.4s1.6-.1,2.4-.4l2.6-.8c1.2-.4,2.1-1.2,2.7-2.3.6-1.1.7-2.4.3-3.5l-.8-2.5c-.3-1-.3-2.1,0-3.1l1.2-3.8c.5-1.5.5-3.2,0-4.7l-.3-1c.3,0,.7-.1,1-.2l3.7-1.2c1-.3,2.1-.3,3.1,0l3.8,1.2c.8.2,1.6.4,2.4.4s1.6-.1,2.4-.4l2.6-.8c2.4-.8,3.8-3.4,3-5.9l-.8-2.5c-.3-1-.3-2.1,0-3.1l1.2-3.8c.5-1.5.5-3.2,0-4.7l-1.2-3.7ZM72.8,82.8l-1.2,3.8c-.5,1.5-.5,3.2,0,4.7l.8,2.5c.2.5.1,1-.1,1.5-.2.5-.7.8-1.2,1l-2.6.8c-1,.3-2.1.3-3.1,0l-3.8-1.2c-.8-.2-1.6-.4-2.3-.4s-1.6.1-2.4.4l-3.8,1.2c-1,.3-2.1.3-3.1,0l-3.8-1.2c-1.5-.5-3.2-.5-4.7,0l-3.8,1.2c-1,.3-2.1.3-3.1,0l-3.7-1.2c-1.5-.5-3.2-.5-4.7,0l-3.8,1.2c-1,.3-2.1.3-3.1,0l-2.5-.8s0,0,0,0c-.5-.2-.9-.5-1.2-1-.2-.5-.3-1-.1-1.5l.8-2.5c.5-1.5.5-3.2,0-4.7l-1.2-3.8c-.3-1-.3-2.1,0-3.1l1.2-3.7c.5-1.5.5-3.2,0-4.7l-1.2-3.8c-.3-1-.3-2.1,0-3.1l1.2-3.8c.5-1.5.5-3.2,0-4.7l-1.2-3.8c-.3-1-.3-2.1,0-3.1l1.2-3.8c.5-1.5.5-3.2,0-4.7l-.8-2.6c-.3-1,.2-2.2,1.3-2.5l2.6-.8c1-.3,2.1-.3,3.1,0l3.8,1.2c1.5.5,3.2.5,4.7,0l3.8-1.2c1-.3,2.1-.3,3.1,0l3.8,1.2c1.5.5,3.2.5,4.7,0l3.8-1.2c1-.3,2.1-.3,3.1,0l3.7,1.2c1.5.5,3.2.5,4.7,0l3.8-1.2c1-.3,2.1-.3,3.1,0l2.6.8c1,.3,1.6,1.5,1.3,2.5l-.8,2.6c-.5,1.5-.5,3.2,0,4.7l1.2,3.8c.3,1,.3,2.1,0,3.1l-1.2,3.8c-.5,1.5-.5,3.2,0,4.7l1.2,3.8c.3,1,.3,2.1,0,3.1l-1.2,3.8c-.5,1.5-.5,3.2,0,4.7l1.2,3.7c.3,1,.3,2.1,0,3.1h0ZM94.7,60.9l-1.2,3.8c-.5,1.5-.5,3.2,0,4.7l.8,2.5c.3,1.1-.2,2.2-1.3,2.5l-2.6.8c-1,.3-2.1.3-3.1,0l-3.8-1.2c-1.5-.5-3.2-.5-4.7,0l-3.7,1.2c-.3.1-.6.2-1,.2v-.2c-.4-1-.4-2.1,0-3.1l1.2-3.8c.5-1.5.5-3.2,0-4.7l-1.2-3.8c-.3-1-.3-2.1,0-3.1l1.2-3.8c.5-1.5.5-3.2,0-4.7l-1.2-3.8c-.3-1-.3-2.1,0-3.1l.8-2.6c.8-2.4-.6-5.1-3-5.8l-2.6-.8c-1.5-.5-3.2-.5-4.7,0l-3.8,1.2c-1,.3-2.1.3-3.1,0l-3.7-1.2c-1.5-.5-3.2-.5-4.7,0l-3.8,1.2c-1,.3-2.1.3-3.1,0l-3.8-1.2c-.3-.1-.6-.2-.9-.2l-.6-1.7c-.3-1-.3-2.1,0-3.1l1.2-3.8c.5-1.5.5-3.2,0-4.7l-.8-2.6c-.2-.5-.1-1,.1-1.5.2-.5.7-.8,1.2-1l2.6-.8c1-.3,2.1-.3,3.1,0l3.8,1.2c1.5.5,3.2.5,4.7,0l3.8-1.2c1-.3,2.1-.3,3.1,0l3.8,1.2c1.5.5,3.2.5,4.7,0l3.8-1.2c1-.3,2.1-.3,3.1,0l3.8,1.2c1.5.5,3.2.5,4.7,0l3.8-1.2c1-.3,2.1-.3,3.1,0l2.6.8c1.1.3,1.6,1.4,1.3,2.5l-.8,2.6c-.5,1.5-.5,3.2,0,4.7l1.2,3.8c.3,1,.3,2.1,0,3.1l-1.2,3.8c-.5,1.5-.5,3.2,0,4.7l1.2,3.7c.3,1,.3,2.1,0,3.1l-1.2,3.8c-.5,1.5-.5,3.2,0,4.7l1.2,3.7c.3,1,.3,2.1,0,3.1h0Z"/>
  <path d="M49.4,22.7c-.7,0-1.3.6-1.3,1.3v.7c0,.7.6,1.3,1.3,1.3s1.3-.6,1.3-1.3v-.7c0-.7-.6-1.3-1.3-1.3Z"/>
  <path d="M66,22.7c-.7,0-1.3.6-1.3,1.3v.7c0,.7.6,1.3,1.3,1.3s1.3-.6,1.3-1.3v-.7c0-.7-.6-1.3-1.3-1.3Z"/>
  <path d="M82.6,22.7c-.7,0-1.3.6-1.3,1.3v.7c0,.7.6,1.3,1.3,1.3s1.3-.6,1.3-1.3v-.7c0-.7-.6-1.3-1.3-1.3Z"/>
  <path d="M82.6,35.8c-.7,0-1.3.6-1.3,1.3v.7c0,.7.6,1.3,1.3,1.3s1.3-.6,1.3-1.3v-.7c0-.7-.6-1.3-1.3-1.3Z"/>
  <path d="M82.6,48.9c-.7,0-1.3.6-1.3,1.3v.7c0,.7.6,1.3,1.3,1.3s1.3-.6,1.3-1.3v-.7c0-.7-.6-1.3-1.3-1.3Z"/>
  <path d="M82.6,62c-.7,0-1.3.6-1.3,1.3v.7c0,.7.6,1.3,1.3,1.3s1.3-.6,1.3-1.3v-.7c0-.7-.6-1.3-1.3-1.3Z"/>
  <path d="M27.4,44.6c-.7,0-1.3.6-1.3,1.3v.7c0,.7.6,1.3,1.3,1.3s1.3-.6,1.3-1.3v-.7c0-.7-.6-1.3-1.3-1.3Z"/>
  <path d="M44,44.6c-.7,0-1.3.6-1.3,1.3v.7c0,.7.6,1.3,1.3,1.3s1.3-.6,1.3-1.3v-.7c0-.7-.6-1.3-1.3-1.3Z"/>
  <path d="M60.6,44.6c-.7,0-1.3.6-1.3,1.3v.7c0,.7.6,1.3,1.3,1.3s1.3-.6,1.3-1.3v-.7c0-.7-.6-1.3-1.3-1.3Z"/>
  <path d="M27.4,57.7c-.7,0-1.3.6-1.3,1.3v.7c0,.7.6,1.3,1.3,1.3s1.3-.6,1.3-1.3v-.7c0-.7-.6-1.3-1.3-1.3Z"/>
  <path d="M44,57.7c-.7,0-1.3.6-1.3,1.3v.7c0,.7.6,1.3,1.3,1.3s1.3-.6,1.3-1.3v-.7c0-.7-.6-1.3-1.3-1.3Z"/>
  <path d="M60.6,57.7c-.7,0-1.3.6-1.3,1.3v.7c0,.7.6,1.3,1.3,1.3s1.3-.6,1.3-1.3v-.7c0-.7-.6-1.3-1.3-1.3Z"/>
  <path d="M27.4,70.8c-.7,0-1.3.6-1.3,1.3v.7c0,.7.6,1.3,1.3,1.3s1.3-.6,1.3-1.3v-.7c0-.7-.6-1.3-1.3-1.3Z"/>
  <path d="M44,70.8c-.7,0-1.3.6-1.3,1.3v.7c0,.7.6,1.3,1.3,1.3s1.3-.6,1.3-1.3v-.7c0-.7-.6-1.3-1.3-1.3Z"/>
  <path d="M60.6,70.8c-.7,0-1.3.6-1.3,1.3v.7c0,.7.6,1.3,1.3,1.3s1.3-.6,1.3-1.3v-.7c0-.7-.6-1.3-1.3-1.3Z"/>
  <path d="M27.4,83.9c-.7,0-1.3.6-1.3,1.3v.7c0,.7.6,1.3,1.3,1.3s1.3-.6,1.3-1.3v-.7c0-.7-.6-1.3-1.3-1.3Z"/>
  <path d="M44,83.9c-.7,0-1.3.6-1.3,1.3v.7c0,.7.6,1.3,1.3,1.3s1.3-.6,1.3-1.3v-.7c0-.7-.6-1.3-1.3-1.3Z"/>
  <path d="M60.6,83.9c-.7,0-1.3.6-1.3,1.3v.7c0,.7.6,1.3,1.3,1.3s1.3-.6,1.3-1.3v-.7c0-.7-.6-1.3-1.3-1.3Z"/>
</svg>